<?xml version="1.0" standalone="no"?>
<!DOCTYPE svg PUBLIC "-//W3C//DTD SVG 20010904//EN"
 "http://www.w3.org/TR/2001/REC-SVG-20010904/DTD/svg10.dtd">
<svg version="1.0" xmlns="http://www.w3.org/2000/svg"
 width="700.000000pt" height="700.000000pt" viewBox="0 0 700.000000 700.000000"
 preserveAspectRatio="xMidYMid meet">
<metadata>
Created by potrace 1.11, written by Peter Selinger 2001-2013
</metadata>
<g transform="translate(0.000000,700.000000) scale(0.100000,-0.100000)"
fill="#000000" stroke="none">
<path d="M3461 5369 c-65 -13 -128 -47 -162 -88 -30 -36 -46 -64 -197 -354
-42 -81 -95 -182 -118 -225 -22 -42 -82 -158 -133 -257 -52 -99 -98 -185 -103
-191 -5 -7 -39 -15 -76 -19 -37 -3 -78 -8 -92 -10 -14 -2 -50 -7 -80 -10 -30
-4 -62 -9 -70 -10 -8 -1 -46 -6 -83 -10 -37 -3 -77 -8 -87 -10 -10 -2 -45 -6
-77 -10 -32 -3 -69 -7 -83 -10 -14 -2 -50 -7 -80 -10 -80 -9 -141 -16 -170
-20 -14 -2 -50 -7 -80 -10 -130 -15 -159 -22 -217 -50 -62 -30 -114 -81 -144
-142 -31 -63 -34 -187 -5 -248 29 -60 32 -64 419 -456 199 -201 375 -379 390
-396 l28 -30 -41 -209 c-43 -218 -90 -460 -141 -724 -36 -185 -37 -238 -9
-310 58 -150 247 -235 395 -180 17 6 251 122 520 257 l490 246 135 -75 c933
-521 890 -499 974 -505 92 -8 162 16 226 75 79 73 99 151 75 302 -3 19 -10 64
-15 100 -6 36 -12 76 -14 90 -3 14 -7 45 -10 70 -4 25 -8 56 -10 70 -2 14 -7
48 -11 75 -11 72 -13 86 -19 125 -3 19 -17 114 -31 210 -14 96 -28 185 -30
196 -2 12 -7 48 -10 79 l-8 57 49 45 c88 82 276 257 309 288 36 34 223 208
328 305 184 170 220 224 220 334 0 81 -17 136 -56 188 -56 74 -122 102 -302
132 -63 10 -399 66 -424 71 -14 2 -136 23 -271 45 -301 50 -300 50 -300 61 0
4 -23 57 -51 116 -28 60 -64 135 -79 168 -15 33 -62 134 -105 225 -42 91 -88
190 -102 220 -145 317 -173 359 -268 400 -52 22 -136 31 -194 19z m123 -341
c18 -40 51 -111 73 -158 22 -47 52 -110 66 -140 26 -57 74 -159 147 -315 23
-49 52 -113 65 -140 13 -28 42 -90 64 -139 23 -48 41 -90 41 -94 0 -15 59 -69
86 -80 23 -9 300 -58 549 -98 17 -3 66 -11 110 -19 44 -8 96 -16 115 -19 19
-3 46 -8 60 -11 14 -3 41 -7 60 -10 19 -3 44 -7 55 -9 11 -2 40 -7 65 -11 25
-4 52 -9 60 -10 8 -1 35 -6 60 -10 98 -15 103 -27 31 -94 -80 -76 -284 -266
-321 -301 -19 -17 -62 -57 -95 -88 -33 -32 -116 -109 -185 -172 -293 -271
-281 -251 -250 -430 5 -30 11 -71 14 -90 11 -79 19 -136 21 -150 2 -8 8 -51
15 -95 6 -44 13 -91 15 -105 19 -129 48 -319 50 -335 1 -11 10 -72 20 -135 24
-158 24 -196 4 -192 -10 1 -190 98 -400 215 -211 118 -411 229 -444 247 -240
133 -236 131 -284 128 -29 -1 -79 -20 -150 -56 -636 -322 -949 -476 -961 -473
-44 8 -44 24 -5 221 20 98 105 532 109 555 3 17 23 119 45 228 40 205 41 241
8 290 -9 12 -192 200 -409 418 -470 474 -440 442 -433 462 10 24 3 23 255 53
25 3 56 7 70 9 14 2 50 6 80 10 30 3 66 8 80 10 14 2 50 7 80 10 75 8 91 10
290 35 47 6 101 13 120 15 19 2 55 6 80 9 25 3 66 8 92 11 101 12 134 40 198
165 18 36 49 97 70 135 20 39 70 133 110 210 106 204 188 362 225 430 18 33
47 88 64 123 26 52 36 62 57 62 22 0 30 -10 58 -72z"/>
</g>
</svg>
